<?xml version="1.0" encoding="UTF-8" standalone="no"?>
<!-- Created with Inkscape (http://www.inkscape.org/) -->

<svg
   version="1.1"
   id="svg3182"
   width="880"
   height="880"
   viewBox="0 0 880 880"
   sodipodi:docname="monster-symbol-pdv.svg"
   inkscape:version="1.2 (dc2aedaf03, 2022-05-15)"
   xmlns:inkscape="http://www.inkscape.org/namespaces/inkscape"
   xmlns:sodipodi="http://sodipodi.sourceforge.net/DTD/sodipodi-0.dtd"
   xmlns="http://www.w3.org/2000/svg"
   xmlns:svg="http://www.w3.org/2000/svg">
  <defs
     id="defs3186">
    <clipPath
       clipPathUnits="userSpaceOnUse"
       id="clipPath3198">
      <path
         d="M 0,660 H 660 V 0 H 0 Z"
         id="path3196" />
    </clipPath>
  </defs>
  <sodipodi:namedview
     id="namedview3184"
     pagecolor="#ffffff"
     bordercolor="#000000"
     borderopacity="0.25"
     inkscape:showpageshadow="2"
     inkscape:pageopacity="0.0"
     inkscape:pagecheckerboard="0"
     inkscape:deskcolor="#d1d1d1"
     showgrid="false"
     inkscape:zoom="0.95113636"
     inkscape:cx="441.05137"
     inkscape:cy="440.52569"
     inkscape:window-width="1920"
     inkscape:window-height="1017"
     inkscape:window-x="-8"
     inkscape:window-y="-8"
     inkscape:window-maximized="1"
     inkscape:current-layer="g3190">
    <inkscape:page
       x="0"
       y="0"
       id="page3188"
       width="880"
       height="880" />
  </sodipodi:namedview>
  <g
     id="g3190"
     inkscape:groupmode="layer"
     inkscape:label="Page 1"
     transform="matrix(1.3333333,0,0,-1.3333333,0,880)">
    <g
       id="g3192">
      <g
         id="g3194"
         clip-path="url(#clipPath3198)">
        <g
           id="g3200"
           transform="translate(463.5068,486.3271)">
          <path
             d="m 0,0 15.91,-50.615 -14.974,-26.01 -6.956,-79.611 -0.759,-0.832 c -8.841,-9.683 -32.269,-35.54 -35.782,-40.291 -1.432,-2.683 -16.522,-30.915 -27.914,-51.164 v -27.287 l -0.394,-0.733 -33.101,-62.021 c 27.538,2.36 53.558,10.046 77.009,22.045 58.099,36.058 96.874,100.424 96.874,173.687 0,62.108 -27.869,117.822 -71.75,155.319 0.868,-6.703 1.541,-11.459 1.83,-12.465 z m -6.088,-4.222 -0.014,0.047 c 0.002,-0.007 0.004,-0.013 0.005,-0.02 z m 14.491,-46.096 0.285,0.493 -15.037,47.832 c -0.031,0.098 -0.064,0.223 -0.098,0.362 0.133,-1.261 0.249,-2.142 0.344,-2.54 z m -173.464,-284.597 -29.325,54.946 v 27.286 c -11.395,20.25 -26.484,48.485 -27.916,51.165 -3.512,4.751 -26.939,30.607 -35.78,40.291 l -0.76,0.831 -6.956,79.611 -14.96,25.984 15.021,50.595 c 0.345,1.382 0.964,8.983 1.683,19.082 -18.129,-14.933 -33.638,-32.931 -45.752,-53.185 -13.631,-27.761 -21.295,-58.983 -21.295,-91.999 0,-100.71 71.221,-184.777 166.04,-204.607 M -61.04,47.825 c -5.294,-10.144 -9.995,-19.31 -13.166,-25.528 -40.078,15.686 -79.046,15.25 -115.963,-1.314 -2.747,4.703 -8.93,15.237 -16.218,27.336 22.411,8.473 46.682,13.124 72.024,13.124 25.832,0 50.553,-4.831 73.323,-13.618"
             style="fill:#ed1c24;fill-opacity:1;fill-rule:nonzero;stroke:none"
             id="path3202" />
        </g>
        <g
           id="g3204"
           transform="translate(307.6162,398.1899)">
          <path
             d="M 0,0 -0.024,-0.186 -0.033,-0.278 C -0.054,-0.464 -0.057,-0.287 0,0 m 44.878,0 c 0.057,-0.287 0.053,-0.464 0.034,-0.278 L 44.9,-0.186 Z m -227.627,-54.695 c 0,38.172 10.534,73.925 28.834,104.524 12.113,20.254 27.623,38.251 45.751,53.184 -0.721,-10.098 -1.338,-17.7 -1.683,-19.082 l -15.019,-50.596 14.959,-25.982 6.956,-79.612 0.76,-0.832 c 8.838,-9.683 32.267,-35.54 35.779,-40.29 1.433,-2.68 16.522,-30.914 27.916,-51.164 v -27.287 l 29.325,-54.946 5.69,-10.66 c -100.883,12.37 -179.268,98.57 -179.268,202.743 m 92.078,223.696 c 0.645,-3.17 1.214,-6.351 1.825,-9.526 l 1.669,-9.548 c 1.031,-6.378 2.077,-12.753 2.95,-19.155 0.933,-6.393 1.735,-12.805 2.481,-19.225 l 0.09,-0.779 -0.416,-0.514 -4.343,-5.328 -4.418,-5.269 -4.504,-5.205 c -1.516,-1.725 -3.056,-3.431 -4.622,-5.117 1.183,1.974 2.395,3.927 3.63,5.862 l 3.75,5.773 3.834,5.708 3.471,5.01 c -1.123,6.142 -2.193,12.291 -3.138,18.458 -1.041,6.377 -1.904,12.779 -2.783,19.18 l -1.199,9.618 c -0.346,3.215 -0.731,6.423 -1.043,9.643 -0.636,6.436 -1.189,12.886 -1.483,19.375 1.615,-6.291 2.975,-12.621 4.249,-18.961 M -52.154,13.876 c 5.197,-1.066 10.361,-2.277 15.541,-3.409 L -21.121,6.875 -5.672,3.186 -1.827,2.277 0.081,1.859 0.318,1.811 0.321,1.823 0.726,3.786 1.598,7.679 C 3.924,18.043 6.457,28.354 9.415,38.583 8.22,28.003 6.609,17.506 4.908,7.041 L 4.287,3.119 3.97,1.168 3.821,0.208 3.773,-0.133 3.757,-0.224 C 3.769,-0.271 3.646,-1.454 3.008,-1.796 2.486,-2.147 2.623,-2.012 2.386,-2.121 1.99,-2.231 2.005,-2.196 1.899,-2.214 L 1.686,-2.223 c -0.371,0.005 -0.537,0.031 -0.738,0.052 l -0.552,0.072 -1.028,0.162 -1.995,0.359 -3.931,0.77 c -5.212,1.096 -10.382,2.294 -15.558,3.484 -5.155,1.263 -10.314,2.51 -15.455,3.827 -5.131,1.359 -10.274,2.659 -15.382,4.112 -10.231,2.83 -20.42,5.824 -30.5,9.251 10.511,-1.693 20.92,-3.777 31.299,-5.99 m 149.186,0 c 10.377,2.213 20.788,4.297 31.299,5.99 -10.08,-3.427 -20.27,-6.421 -30.5,-9.251 C 92.724,9.162 87.579,7.862 82.449,6.503 77.309,5.186 72.149,3.939 66.993,2.676 61.817,1.486 56.647,0.288 51.437,-0.808 l -3.933,-0.77 -1.994,-0.359 -1.028,-0.162 -0.551,-0.072 c -0.203,-0.021 -0.369,-0.047 -0.74,-0.052 l -0.212,0.009 c -0.106,0.018 -0.091,-0.017 -0.488,0.093 -0.237,0.109 -0.099,-0.026 -0.621,0.325 -0.64,0.343 -0.762,1.526 -0.75,1.572 l -0.017,0.091 -0.047,0.341 -0.15,0.96 -0.315,1.951 -0.62,3.922 C 38.269,17.506 36.657,28.003 35.465,38.583 38.42,28.354 40.953,18.043 43.28,7.679 l 0.871,-3.893 0.406,-1.963 0.003,-0.012 0.237,0.048 1.907,0.418 3.846,0.909 15.448,3.689 15.492,3.592 c 5.182,1.132 10.344,2.343 15.542,3.409 m 44.01,75.459 c -1.566,1.686 -3.107,3.392 -4.622,5.117 l -4.505,5.205 -4.419,5.269 -4.34,5.328 -0.419,0.514 0.091,0.779 c 0.745,6.42 1.548,12.832 2.483,19.225 0.87,6.402 1.917,12.777 2.95,19.155 l 1.667,9.548 c 0.61,3.175 1.18,6.356 1.823,9.526 1.276,6.34 2.634,12.67 4.251,18.961 -0.293,-6.489 -0.847,-12.939 -1.482,-19.375 -0.313,-3.22 -0.699,-6.428 -1.043,-9.643 l -1.2,-9.618 c -0.879,-6.401 -1.743,-12.803 -2.784,-19.18 -0.942,-6.167 -2.013,-12.316 -3.135,-18.458 l 3.468,-5.01 3.837,-5.708 3.749,-5.773 c 1.235,-1.935 2.445,-3.888 3.63,-5.862 m 8.761,-5.419 -0.009,0.026 c -0.001,0.007 -0.003,0.013 -0.006,0.019 z m -46.326,-138.611 -46.15,14.614 29.506,15.546 c -0.06,-8.763 2.325,-17.636 7.166,-17.636 6.212,0 8.383,14.609 6.524,24.849 l 28.334,14.93 z M 36.049,-191.456 h -2.265 l -0.843,0.83 -0.843,-0.83 h -8.537 l -1.372,1.462 -1.425,-1.462 H 10.7 l -0.74,1.357 -0.605,-1.357 H 5.992 l -2.729,5.414 0.355,4.432 -0.246,0.306 c -0.013,0.016 -0.388,0.481 -0.945,1.178 1.029,1.401 2.393,3.016 2.844,2.429 0.756,-0.983 3.425,-2.558 3.425,-2.558 0,0 3.374,3.507 3.655,2.681 0.281,-0.826 4.498,-2.681 4.498,-2.681 l 2.869,2.137 2.894,-2.137 3.793,2.137 3.373,-2.811 3.134,2.876 c 0,0 2.77,-2.202 3.191,-2.876 0.422,-0.675 2.111,3.686 2.802,3.489 0.389,-0.111 1.295,-1.518 2.013,-2.726 -0.311,-0.61 -0.536,-1.105 -0.649,-1.356 l -0.106,-0.238 0.258,-2.592 z m -2.651,-47.911 -2.553,-0.474 -0.45,0.566 -0.901,-0.522 -1.596,0.05 -0.369,0.461 -0.901,-0.418 -7.003,0.077 -1.013,0.996 -0.829,-0.788 -1.803,0.057 -0.778,0.864 -1.351,-0.795 -2.211,0.071 c -4.923,-0.512 -8.15,2.253 -8.15,2.253 l 5.845,9.134 c 0.241,0.376 0.821,0.237 0.865,-0.208 l 0.808,-6.266 1.4,-0.011 0.798,-0.871 0.736,0.859 3.659,-0.03 0.484,-1.411 0.333,1.405 3.95,-0.031 0.819,-2.673 0.546,2.661 3.385,-0.027 0.601,-1.953 0.399,1.946 1.908,-0.015 0.737,-0.64 0.696,0.628 0.902,-0.007 0.484,6.066 c 0.041,0.496 0.7,0.642 0.945,0.208 l 5.824,-10.277 c 0,0 -2.389,-1.342 -6.216,-0.885 m -30.236,8.413 -28.896,47.898 -0.869,1.438 -0.361,3.783 c 0.438,-0.721 0.844,-1.378 1.23,-1.989 1.403,-2.234 2.428,-3.699 2.914,-4.089 0.462,-0.368 1.89,-0.657 4.031,-0.878 z m -11.064,49.036 c 1.428,3.202 3.193,6.138 4.03,6.724 1.441,-2.016 4.561,-5.91 5.467,-7.039 l -1.434,-17.969 z m 67.74,-2.877 c 2.005,0.236 3.346,0.526 3.793,0.882 0.619,0.495 2.101,2.715 4.144,6.078 l -0.361,-3.783 -20.249,-33.562 z m -13.473,8.423 c 1.71,-1.295 4.33,-4.53 5.263,-5.709 l -7.571,-18.973 -1.886,18.97 c 1.191,2.601 3.035,5.474 4.053,5.736 0.077,0.019 0.094,0.012 0.141,-0.024 m -20.916,59.639 c 3.998,-0.172 7.996,-0.698 11.898,-1.745 1.946,-0.539 3.874,-1.206 5.7,-2.114 1.821,-0.876 3.598,-2.039 4.87,-3.586 -3.61,1.635 -7.397,1.904 -11.165,2.213 -3.78,0.226 -7.569,0.269 -11.354,0.172 -3.78,-0.086 -7.562,-0.293 -11.269,-0.704 -1.846,-0.218 -3.685,-0.475 -5.41,-0.863 -0.837,-0.202 -1.7,-0.432 -2.369,-0.714 -0.194,-0.061 -0.324,-0.137 -0.464,-0.206 l -0.216,-0.101 c -0.043,-0.034 -0.081,-0.061 -0.126,-0.087 -0.027,-0.015 -0.036,-0.021 -0.056,-0.031 0.481,-1.87 0.931,-3.751 1.325,-5.654 0.222,-1.12 0.475,-2.227 0.655,-3.364 0.201,-1.125 0.384,-2.259 0.518,-3.41 -0.628,0.973 -1.209,1.965 -1.771,2.962 -0.584,0.989 -1.09,2.006 -1.636,3.011 -1.063,2.015 -2.063,4.057 -3.008,6.118 l -0.172,0.374 0.064,0.453 c 0.074,0.521 0.216,1.2 0.47,1.544 0.119,0.207 0.249,0.408 0.387,0.603 0.135,0.166 0.264,0.286 0.4,0.429 l 0.417,0.401 0.395,0.296 c 0.266,0.197 0.542,0.395 0.794,0.528 1.05,0.645 2.056,0.995 3.072,1.382 2.019,0.68 4.021,1.12 6.028,1.442 4.009,0.618 8.02,0.816 12.023,0.651 m -73.137,74.562 c 4.753,0 7.141,8.554 7.17,17.157 l 28.596,-15.067 -46.149,-14.614 -25.382,52.303 29.167,-15.368 c -1.72,-10.214 0.475,-24.411 6.598,-24.411 m 196.14,188.354 c 0.454,-3.721 0.924,-7.598 1.411,-11.617 1.447,-11.926 3.001,-24.763 4.191,-33.942 43.881,-37.496 71.75,-93.21 71.75,-155.319 0,-73.263 -38.776,-137.631 -96.874,-173.686 -24.031,-14.916 -51.364,-24.986 -80.633,-28.834 l -3.37,-6.315 h -3.888 -3.771 l 3.552,6.654 h 0.114 l 37.826,70.87 v 27.292 c 1.434,2.572 2.903,5.219 4.378,7.894 8.133,14.627 17.172,31.398 21.63,39.704 5.162,6.738 35.778,40.269 35.778,40.269 l 0.231,2.65 c 1.145,1.257 2.062,2.265 2.66,2.92 l 6.866,78.575 11.779,20.46 -0.045,0.142 2.257,3.919 -14.507,46.147 c -0.095,0.398 -0.211,1.28 -0.344,2.54 -0.803,3.225 -2.561,17.35 -6.186,47.26 -0.383,3.161 -0.778,6.42 -1.178,9.71 -1.54,23.351 -3.125,46.395 -4.242,54.59 0.214,-0.004 0.423,-0.023 0.632,-0.044 1.292,-0.132 2.363,-0.894 2.972,-2.042 -0.306,2.713 -0.59,4.6 -0.852,5.559 -0.445,1.629 -1.71,2.743 -3.306,2.903 -2.783,0.282 -5.246,0.52 -26.643,-38.795 -27.535,11.176 -57.615,17.349 -89.113,17.349 -31.77,0 -62.097,-6.282 -89.826,-17.642 2.598,-4.095 5.463,-8.679 8.663,-13.877 3.128,-5.082 6.22,-10.173 9.14,-15.02 22.41,8.472 46.683,13.123 72.023,13.123 25.832,0 50.553,-4.831 73.324,-13.618 -5.294,-10.144 -9.996,-19.309 -13.166,-25.528 1.033,-0.404 2.066,-0.816 3.101,-1.242 -1.265,-2.479 -2.29,-4.5 -3.027,-5.953 -27.687,11.299 -54.801,14.586 -81.007,9.874 -12.921,-1.759 -25.769,-5.464 -38.538,-11.196 l -0.723,1.247 c -7.312,12.609 -16.048,27.298 -24.465,41.02 -11.289,21.385 -23.894,44.411 -30.298,53.222 1.656,-0.075 4.064,-1.477 10.793,-10.762 -10.726,18.211 -12.684,18.017 -14.853,17.798 -1.595,-0.16 -2.861,-1.272 -3.305,-2.903 -1.102,-4.042 -2.585,-24.305 -4.64,-55.28 -66.583,-42.166 -110.887,-116.479 -110.887,-200.954 0,-131.062 106.628,-237.69 237.691,-237.69 131.064,0 237.694,106.628 237.694,237.69 0,84.424 -44.251,158.699 -110.769,200.878"
             style="fill:#000000;fill-opacity:1;fill-rule:nonzero;stroke:none"
             id="path3206" />
        </g>
      </g>
    </g>
  </g>
</svg>
